<svg width="8" height="14" viewBox="0 0 8 14" fill="none" xmlns="http://www.w3.org/2000/svg">
<path d="M1.86395 7.0001L7.52528 1.1821C7.5719 1.13522 7.60874 1.07955 7.6337 1.01833C7.65866 0.957109 7.67122 0.891546 7.67068 0.825436C7.67013 0.759326 7.65647 0.693981 7.6305 0.633183C7.60453 0.572385 7.56676 0.517341 7.51938 0.471236C7.472 0.425131 7.41594 0.388881 7.35445 0.364583C7.29297 0.340285 7.22727 0.328422 7.16117 0.32968C7.09507 0.330939 7.02988 0.345294 6.96936 0.371914C6.90885 0.398535 6.85421 0.436893 6.80862 0.484768L0.808619 6.65143C0.717804 6.74478 0.666992 6.86987 0.666992 7.0001C0.666992 7.13033 0.717804 7.25542 0.808619 7.34877L6.80862 13.5154C6.85421 13.5633 6.90885 13.6017 6.96936 13.6283C7.02988 13.6549 7.09507 13.6693 7.16117 13.6705C7.22727 13.6718 7.29297 13.6599 7.35445 13.6356C7.41594 13.6113 7.472 13.5751 7.51938 13.529C7.56676 13.4829 7.60453 13.4278 7.6305 13.367C7.65647 13.3062 7.67013 13.2409 7.67068 13.1748C7.67122 13.1087 7.65866 13.0431 7.6337 12.9819C7.60874 12.9207 7.5719 12.865 7.52528 12.8181L1.86395 7.0001Z" fill="currentColor" />
</svg>
