<svg width="0" height="0" class="hidden">
  <symbol fill="none" xmlns="http://www.w3.org/2000/svg" viewBox="0 0 8 14" id="arrow">
    <path d="M1.86395 7.0001L7.52528 1.1821C7.5719 1.13522 7.60874 1.07955 7.6337 1.01833C7.65866 0.957109 7.67122 0.891546 7.67068 0.825436C7.67013 0.759326 7.65647 0.693981 7.6305 0.633183C7.60453 0.572385 7.56676 0.517341 7.51938 0.471236C7.472 0.425131 7.41594 0.388881 7.35445 0.364583C7.29297 0.340285 7.22727 0.328422 7.16117 0.32968C7.09507 0.330939 7.02988 0.345294 6.96936 0.371914C6.90885 0.398535 6.85421 0.436893 6.80862 0.484768L0.808619 6.65143C0.717804 6.74478 0.666992 6.86987 0.666992 7.0001C0.666992 7.13033 0.717804 7.25542 0.808619 7.34877L6.80862 13.5154C6.85421 13.5633 6.90885 13.6017 6.96936 13.6283C7.02988 13.6549 7.09507 13.6693 7.16117 13.6705C7.22727 13.6718 7.29297 13.6599 7.35445 13.6356C7.41594 13.6113 7.472 13.5751 7.51938 13.529C7.56676 13.4829 7.60453 13.4278 7.6305 13.367C7.65647 13.3062 7.67013 13.2409 7.67068 13.1748C7.67122 13.1087 7.65866 13.0431 7.6337 12.9819C7.60874 12.9207 7.5719 12.865 7.52528 12.8181L1.86395 7.0001Z" fill="currentColor"></path>
  </symbol>
  <symbol fill="none" xmlns="http://www.w3.org/2000/svg" viewBox="0 0 16 16" id="cart">
    <path d="M5.87329 1.33337L3.45996 3.75337" stroke="currentColor" stroke-miterlimit="10" stroke-linecap="round" stroke-linejoin="round"></path>
    <path d="M10.1265 1.33337L12.5398 3.75337" stroke="currentColor" stroke-miterlimit="10" stroke-linecap="round" stroke-linejoin="round"></path>
    <path d="M1.3335 5.23336C1.3335 4.00002 1.9935 3.90002 2.8135 3.90002H13.1868C14.0068 3.90002 14.6668 4.00002 14.6668 5.23336C14.6668 6.66669 14.0068 6.56669 13.1868 6.56669H2.8135C1.9935 6.56669 1.3335 6.66669 1.3335 5.23336Z" stroke="currentColor"></path>
    <path d="M6.50684 9.33337V11.7" stroke="currentColor" stroke-linecap="round"></path>
    <path d="M9.57324 9.33337V11.7" stroke="currentColor" stroke-linecap="round"></path>
    <path d="M2.3335 6.66663L3.2735 12.4266C3.48683 13.72 4.00016 14.6666 5.90683 14.6666H9.92683C12.0002 14.6666 12.3068 13.76 12.5468 12.5066L13.6668 6.66663" stroke="currentColor" stroke-linecap="round"></path>
  </symbol>
  <symbol fill="none" xmlns="http://www.w3.org/2000/svg" viewBox="0 0 16 14" id="favorite">
    <path d="M8.4135 12.8733C8.18683 12.9533 7.8135 12.9533 7.58683 12.8733C5.6535 12.2133 1.3335 9.45998 1.3335 4.79332C1.3335 2.73332 2.9935 1.06665 5.04016 1.06665C6.2535 1.06665 7.32683 1.65332 8.00016 2.55998C8.6735 1.65332 9.7535 1.06665 10.9602 1.06665C13.0068 1.06665 14.6668 2.73332 14.6668 4.79332C14.6668 9.45998 10.3468 12.2133 8.4135 12.8733Z" stroke="currentColor" stroke-linecap="round" stroke-linejoin="round" fill="var(--fill-color, transparent)"></path>
  </symbol>
  <symbol fill="none" xmlns="http://www.w3.org/2000/svg" viewBox="0 0 130 28" id="logo">
    <path d="M125.789 21.0677C124.82 21.0677 123.982 20.842 123.275 20.3907C122.567 19.9349 122.02 19.3053 121.632 18.5019C121.249 17.694 121.058 16.7643 121.058 15.7127C121.058 14.6657 121.249 13.736 121.632 12.9236C122.02 12.1067 122.554 11.4681 123.234 11.0077C123.919 10.5429 124.71 10.3104 125.607 10.3104C126.17 10.3104 126.713 10.4142 127.236 10.6218C127.758 10.8249 128.227 11.1386 128.641 11.5628C129.061 11.9826 129.392 12.5129 129.635 13.1538C129.878 13.7901 130 14.5438 130 15.4149V16.0106H121.889V14.9478H128.77C128.77 14.2798 128.635 13.6795 128.364 13.147C128.098 12.6099 127.727 12.1857 127.249 11.8743C126.776 11.5628 126.228 11.4071 125.607 11.4071C124.949 11.4071 124.37 11.5832 123.869 11.9352C123.369 12.2872 122.977 12.7521 122.693 13.3298C122.414 13.9075 122.272 14.5393 122.268 15.2253V15.8617C122.268 16.6876 122.409 17.4097 122.693 18.028C122.982 18.6418 123.39 19.118 123.917 19.4565C124.444 19.7949 125.068 19.9642 125.789 19.9642C126.28 19.9642 126.711 19.8875 127.08 19.734C127.454 19.5806 127.767 19.3752 128.02 19.118C128.276 18.8562 128.47 18.5696 128.601 18.2582L129.743 18.6305C129.585 19.0683 129.326 19.4723 128.966 19.8423C128.61 20.2124 128.164 20.5103 127.628 20.736C127.096 20.9571 126.483 21.0677 125.789 21.0677Z" fill="currentColor"></path>
    <path d="M118.408 6.98657V20.8512H117.205V6.98657H118.408Z" fill="currentColor"></path>
    <path d="M105.792 24.7505V10.4526H106.961V12.4362H107.103C107.247 12.1247 107.446 11.8066 107.698 11.4816C107.95 11.1521 108.284 10.8746 108.698 10.6489C109.118 10.4233 109.645 10.3104 110.28 10.3104C111.136 10.3104 111.884 10.5361 112.524 10.9874C113.169 11.4342 113.669 12.0616 114.025 12.8694C114.385 13.6728 114.565 14.6093 114.565 15.6789C114.565 16.753 114.385 17.694 114.025 18.5019C113.669 19.3098 113.169 19.9394 112.524 20.3907C111.884 20.842 111.141 21.0677 110.294 21.0677C109.667 21.0677 109.142 20.9548 108.719 20.7292C108.3 20.5035 107.959 20.226 107.698 19.8965C107.441 19.5625 107.243 19.2376 107.103 18.9216H106.995V24.7505H105.792ZM106.982 15.6586C106.982 16.498 107.106 17.2427 107.353 17.8926C107.606 18.538 107.966 19.0458 108.435 19.4158C108.908 19.7814 109.48 19.9642 110.152 19.9642C110.841 19.9642 111.422 19.7746 111.896 19.3955C112.373 19.0119 112.736 18.4951 112.984 17.8452C113.236 17.1953 113.362 16.4665 113.362 15.6586C113.362 14.8597 113.238 14.1399 112.991 13.499C112.747 12.8581 112.387 12.3504 111.909 11.9758C111.431 11.5967 110.846 11.4071 110.152 11.4071C109.476 11.4071 108.901 11.5899 108.428 11.9555C107.955 12.3165 107.594 12.8175 107.347 13.4584C107.103 14.0948 106.982 14.8282 106.982 15.6586Z" fill="currentColor"></path>
    <path d="M98.5809 21.0677C97.6842 21.0677 96.8911 20.8398 96.2017 20.3839C95.5168 19.9281 94.9805 19.2985 94.593 18.4951C94.2055 17.6873 94.0117 16.7553 94.0117 15.6992C94.0117 14.6341 94.2055 13.6976 94.593 12.8897C94.9805 12.0773 95.5168 11.4455 96.2017 10.9942C96.8911 10.5383 97.6842 10.3104 98.5809 10.3104C99.4777 10.3104 100.268 10.5383 100.953 10.9942C101.638 11.45 102.175 12.0819 102.562 12.8897C102.954 13.6976 103.15 14.6341 103.15 15.6992C103.15 16.7553 102.956 17.6873 102.569 18.4951C102.181 19.2985 101.643 19.9281 100.953 20.3839C100.268 20.8398 99.4777 21.0677 98.5809 21.0677ZM98.5809 19.9642C99.3019 19.9642 99.9125 19.7701 100.413 19.382C100.913 18.9939 101.291 18.4771 101.548 17.8317C101.81 17.1863 101.94 16.4755 101.94 15.6992C101.94 14.9229 101.81 14.2098 101.548 13.5599C101.291 12.91 100.913 12.3888 100.413 11.9961C99.9125 11.6035 99.3019 11.4071 98.5809 11.4071C97.8645 11.4071 97.2539 11.6035 96.7492 11.9961C96.249 12.3888 95.8682 12.91 95.6069 13.5599C95.35 14.2098 95.2216 14.9229 95.2216 15.6992C95.2216 16.4755 95.35 17.1863 95.6069 17.8317C95.8682 18.4771 96.249 18.9939 96.7492 19.382C97.2494 19.7701 97.86 19.9642 98.5809 19.9642Z" fill="currentColor"></path>
    <path d="M87.6836 21.0677C86.7148 21.0677 85.8766 20.842 85.1692 20.3907C84.4617 19.9349 83.9142 19.3053 83.5267 18.5019C83.1437 17.694 82.9521 16.7643 82.9521 15.7127C82.9521 14.6657 83.1437 13.736 83.5267 12.9236C83.9142 12.1067 84.4482 11.4681 85.1286 11.0077C85.8135 10.5429 86.6044 10.3104 87.5011 10.3104C88.0644 10.3104 88.6074 10.4142 89.1301 10.6218C89.6528 10.8249 90.1214 11.1386 90.536 11.5628C90.9551 11.9826 91.2863 12.5129 91.5296 13.1538C91.7729 13.7901 91.8946 14.5438 91.8946 15.4149V16.0106H83.7835V14.9478H90.6644C90.6644 14.2798 90.5292 13.6795 90.2589 13.147C89.993 12.6099 89.6212 12.1857 89.1436 11.8743C88.6704 11.5628 88.1229 11.4071 87.5011 11.4071C86.8432 11.4071 86.2642 11.5832 85.764 11.9352C85.2638 12.2872 84.8718 12.7521 84.5879 13.3298C84.3085 13.9075 84.1666 14.5393 84.162 15.2253V15.8617C84.162 16.6876 84.304 17.4097 84.5879 18.028C84.8763 18.6418 85.2841 19.118 85.8113 19.4565C86.3385 19.7949 86.9626 19.9642 87.6836 19.9642C88.1748 19.9642 88.6051 19.8875 88.9746 19.734C89.3486 19.5806 89.6618 19.3752 89.9141 19.118C90.171 18.8562 90.3647 18.5696 90.4954 18.2582L91.6377 18.6305C91.48 19.0683 91.2209 19.4723 90.8604 19.8423C90.5044 20.2124 90.0583 20.5103 89.5221 20.736C88.9904 20.9571 88.3775 21.0677 87.6836 21.0677Z" fill="currentColor"></path>
    <path d="M71.9512 20.8512V6.98657H76.419C77.4013 6.98657 78.2215 7.17613 78.8794 7.55524C79.5418 7.92984 80.0397 8.43983 80.3731 9.08522C80.7111 9.73061 80.8801 10.4572 80.8801 11.2651C80.8801 12.073 80.7134 12.8019 80.3799 13.4518C80.0465 14.0971 79.5508 14.6094 78.8929 14.9885C78.235 15.3631 77.4171 15.5504 76.4393 15.5504H72.9245V14.4131H76.4055C77.131 14.4131 77.7326 14.2777 78.2102 14.0069C78.6879 13.7316 79.0438 13.357 79.2782 12.8831C79.517 12.4092 79.6364 11.8699 79.6364 11.2651C79.6364 10.6603 79.517 10.121 79.2782 9.64711C79.0438 9.17323 78.6856 8.80089 78.2034 8.53009C77.7258 8.2593 77.1197 8.1239 76.3852 8.1239H73.2151V20.8512H71.9512Z" fill="currentColor"></path>
    <path d="M65.4319 6.98657V20.8512H61.6738V6.98657H65.4319Z" fill="currentColor"></path>
    <path d="M48.0684 20.8512V6.98657H51.8265V12.592H52.0157L56.1794 6.98657H60.5594L55.882 13.1607L60.6675 20.8512H56.1794L53.0702 15.652L51.8265 17.2767V20.8512H48.0684Z" fill="currentColor"></path>
    <path d="M42.8537 11.3191C42.8176 10.8678 42.6487 10.5158 42.3467 10.263C42.0493 10.0103 41.5965 9.88392 40.9881 9.88392C40.6006 9.88392 40.2829 9.9313 40.0351 10.0261C39.7918 10.1163 39.6115 10.2405 39.4944 10.3984C39.3772 10.5564 39.3164 10.7369 39.3119 10.94C39.3028 11.107 39.3321 11.2582 39.3997 11.3936C39.4718 11.5245 39.5845 11.6441 39.7377 11.7524C39.8909 11.8562 40.0869 11.951 40.3257 12.0367C40.5646 12.1225 40.8485 12.1992 41.1774 12.2669L42.3129 12.5106C43.079 12.6731 43.7346 12.8875 44.2799 13.1537C44.8251 13.42 45.2712 13.7337 45.6182 14.0947C45.9652 14.4513 46.2198 14.853 46.382 15.2998C46.5487 15.7466 46.6343 16.234 46.6388 16.7621C46.6343 17.6737 46.4068 18.4455 45.9562 19.0773C45.5055 19.7092 44.8612 20.1898 44.023 20.5193C43.1894 20.8488 42.1868 21.0135 41.0152 21.0135C39.812 21.0135 38.7621 20.8352 37.8654 20.4787C36.9732 20.1221 36.2792 19.5738 35.7836 18.8336C35.2924 18.0889 35.0445 17.1367 35.04 15.9768H38.6089C38.6314 16.401 38.7373 16.7575 38.9266 17.0464C39.1158 17.3352 39.3817 17.5541 39.7242 17.7031C40.0711 17.852 40.4835 17.9265 40.9611 17.9265C41.3622 17.9265 41.6979 17.8768 41.9682 17.7775C42.2386 17.6782 42.4436 17.5406 42.5833 17.3646C42.723 17.1886 42.7951 16.9877 42.7996 16.7621C42.7951 16.5499 42.7253 16.3649 42.5901 16.2069C42.4594 16.0445 42.2431 15.9 41.9412 15.7737C41.6393 15.6428 41.2315 15.5209 40.7178 15.4081L39.3389 15.1102C38.1132 14.8439 37.1467 14.3994 36.4392 13.7766C35.7362 13.1492 35.387 12.294 35.3915 11.2108C35.387 10.3307 35.6213 9.56122 36.0945 8.90229C36.5721 8.23885 37.2323 7.72208 38.0749 7.352C38.9221 6.98192 39.8932 6.79688 40.9881 6.79688C42.1057 6.79688 43.0722 6.98417 43.8878 7.35877C44.7035 7.73337 45.3321 8.26141 45.7737 8.94291C46.2198 9.61989 46.4451 10.412 46.4496 11.3191H42.8537Z" fill="currentColor"></path>
    <path fill-rule="evenodd" clip-rule="evenodd" d="M3.05138 13.8673L21.9872 25.9247L21.9882 25.9253C22.1714 26.0398 22.3298 26.0917 22.4803 26.0658C22.6471 26.037 22.7917 25.9282 22.9376 25.7896C23.1583 25.58 23.5073 25.5894 23.7165 25.8104C23.9258 26.0313 23.9164 26.3809 23.6958 26.5904C23.3755 26.8946 23.0333 27.0903 22.6671 27.1534C22.2853 27.2192 21.8661 27.151 21.4002 26.8587L21.397 26.8567L2.45707 14.7966C2.45515 14.7954 2.45325 14.7942 2.45137 14.7929L2.45109 14.7927C1.99091 14.4916 1.7535 14.139 1.65319 13.7642C1.55693 13.4047 1.59092 13.0116 1.73246 12.5928C1.82992 12.3044 2.14292 12.1494 2.43092 12.2471C2.71898 12.3447 2.87361 12.6582 2.77609 12.9467C2.71163 13.1374 2.67359 13.3146 2.71744 13.4783C2.75696 13.6261 2.8706 13.7486 3.05138 13.8673ZM22.2935 1.06456C23.6794 1.68621 24.3005 3.31779 23.6799 4.70582C23.0592 6.0938 21.4302 6.716 20.0444 6.09435C18.6585 5.47269 18.0373 3.84106 18.658 2.45309C19.2787 1.06511 20.9077 0.442905 22.2935 1.06456ZM13.7623 10.5862L15.1116 7.56879C15.1694 7.43954 15.1831 7.29483 15.1507 7.15699C15.1182 7.01915 15.0414 6.89583 14.9321 6.80604L12.0109 4.40803C11.4276 3.92978 11.2142 3.52455 11.4559 2.97548L11.4748 2.93249C11.7166 2.38336 12.2341 1.97165 12.9052 2.37661C12.9052 2.37661 15.6641 4.39458 16.4134 4.99323C16.5402 5.09457 16.6794 5.17946 16.8274 5.24589C17.726 5.64893 21.0231 7.29269 22.1162 7.78302C22.3454 7.8858 22.5552 8.02711 22.7367 8.20083L25.7357 11.0703C26.1786 11.5041 26.5221 11.963 26.274 12.5093L26.2546 12.5521C26.0065 13.0983 25.3424 13.5165 24.8178 13.0912L21.7614 10.1032C21.742 10.0842 21.7183 10.0702 21.6923 10.0623C21.6663 10.0544 21.6388 10.053 21.6121 10.0581C21.5854 10.0632 21.5604 10.0746 21.5391 10.0915C21.5178 10.1084 21.5009 10.1302 21.4898 10.155L19.7274 14.0962L22.5526 18.0091C22.7131 18.2313 22.7939 18.5012 22.782 18.7752C22.7701 19.0491 22.6661 19.311 22.487 19.5184L20.0865 22.2976C19.8946 22.5196 19.6226 22.6562 19.3303 22.6774C19.0379 22.6985 18.7491 22.6025 18.5274 22.4104C18.0658 22.0104 18.0153 21.3114 18.4147 20.849L19.8097 19.2341C19.8556 19.181 19.8823 19.1139 19.8853 19.0437C19.8884 18.9735 19.8677 18.9043 19.8266 18.8474L18.7104 17.3015C16.8757 14.7748 14.3327 13.761 12.4177 13.0807L10.1321 12.6412C10.0632 12.628 9.99181 12.6384 9.92959 12.6709C9.86736 12.7033 9.8179 12.7559 9.78924 12.82L8.91772 14.7689C8.6682 15.3268 8.01435 15.5765 7.45726 15.3267C7.18974 15.2066 6.98077 14.9851 6.87631 14.7108C6.77186 14.4365 6.78048 14.1318 6.90028 13.8639C7.33508 12.8915 7.98618 11.4359 8.40031 10.5101C8.51222 10.2598 8.70523 10.0548 8.94806 9.92815C9.19089 9.80153 9.4693 9.76077 9.73815 9.81247L13.7623 10.5862Z" fill="currentColor"></path>
  </symbol>
  <symbol fill="none" xmlns="http://www.w3.org/2000/svg" viewBox="0 0 12 14" id="phone">
    <path d="M2.48578 0.544576L3.59264 0.210861C3.95794 0.100899 4.35076 0.127579 4.69784 0.285925C5.04492 0.44427 5.32254 0.723467 5.47892 1.07143L6.25492 2.79715C6.38961 3.09653 6.42715 3.43058 6.36227 3.75239C6.2974 4.0742 6.13336 4.36761 5.89321 4.59143L4.71206 5.692C4.55378 5.84229 4.67378 6.428 5.25206 7.43029C5.83092 8.43315 6.27835 8.82972 6.48464 8.768L8.03206 8.29486C8.34573 8.19892 8.68155 8.20353 8.99246 8.30806C9.30337 8.41258 9.57378 8.61178 9.76578 8.87772L10.8686 10.4063C11.0914 10.715 11.1945 11.094 11.1589 11.473C11.1233 11.852 10.9513 12.2051 10.6749 12.4669L9.82235 13.2743C9.54712 13.5349 9.20768 13.7179 8.83866 13.8045C8.46964 13.8912 8.08424 13.8784 7.72178 13.7674C5.93549 13.2206 4.28121 11.5977 2.73664 8.92172C1.18864 6.24172 0.604065 3.98115 1.01149 2.13429C1.09367 1.76215 1.2736 1.41866 1.53275 1.13922C1.79189 0.859784 2.12088 0.654516 2.48578 0.544576Z" fill="currentColor"></path>
  </symbol>
  <symbol fill="none" xmlns="http://www.w3.org/2000/svg" viewBox="0 0 16 16" id="search">
    <path d="M7.66634 14C11.1641 14 13.9997 11.1645 13.9997 7.66671C13.9997 4.1689 11.1641 1.33337 7.66634 1.33337C4.16854 1.33337 1.33301 4.1689 1.33301 7.66671C1.33301 11.1645 4.16854 14 7.66634 14Z" stroke="currentColor" stroke-width="1.5" stroke-linecap="round" stroke-linejoin="round"></path>
    <path d="M14.6663 14.6667L13.333 13.3334" stroke="currentColor" stroke-width="1.5" stroke-linecap="round" stroke-linejoin="round"></path>
  </symbol>
  <symbol fill="none" xmlns="http://www.w3.org/2000/svg" viewBox="0 0 24 24" id="telegram">
    <path d="M24 12C24 15.1826 22.7357 18.2348 20.4853 20.4853C18.2348 22.7357 15.1826 24 12 24C8.8174 24 5.76516 22.7357 3.51472 20.4853C1.26428 18.2348 0 15.1826 0 12C0 8.8174 1.26428 5.76516 3.51472 3.51472C5.76516 1.26428 8.8174 0 12 0C15.1826 0 18.2348 1.26428 20.4853 3.51472C22.7357 5.76516 24 8.8174 24 12ZM12.4305 8.859C11.2635 9.345 8.9295 10.35 5.4315 11.874C4.8645 12.099 4.566 12.321 4.539 12.537C4.494 12.9015 4.9515 13.0455 5.574 13.242L5.8365 13.3245C6.4485 13.524 7.2735 13.7565 7.701 13.7655C8.091 13.7745 8.5245 13.6155 9.003 13.2855C12.2715 11.079 13.959 9.9645 14.064 9.9405C14.139 9.9225 14.244 9.9015 14.313 9.9645C14.3835 10.026 14.376 10.1445 14.3685 10.176C14.3235 10.3695 12.528 12.0375 11.5995 12.9015C11.31 13.1715 11.1045 13.362 11.0625 13.4055C10.97 13.5 10.876 13.593 10.7805 13.6845C10.2105 14.2335 9.7845 14.6445 10.803 15.3165C11.2935 15.6405 11.6865 15.906 12.078 16.173C12.504 16.464 12.93 16.7535 13.482 17.1165C13.6215 17.2065 13.7565 17.304 13.887 17.397C14.3835 17.751 14.832 18.069 15.3825 18.018C15.7035 17.988 16.035 17.688 16.203 16.788C16.6005 14.6625 17.382 10.059 17.562 8.1615C17.573 8.00376 17.5664 7.84529 17.5425 7.689C17.5284 7.56288 17.4673 7.44669 17.3715 7.3635C17.235 7.26928 17.0723 7.22047 16.9065 7.224C16.4565 7.2315 15.762 7.473 12.4305 8.859Z" fill="currentColor"></path>
  </symbol>
  <symbol fill="none" xmlns="http://www.w3.org/2000/svg" viewBox="0 0 24 24" id="vk">
    <path d="M12.0005 0.48C5.63807 0.48 0.480469 5.6376 0.480469 12C0.480469 18.3624 5.63807 23.52 12.0005 23.52C18.3629 23.52 23.5205 18.3624 23.5205 12C23.5205 5.6376 18.3629 0.48 12.0005 0.48ZM16.4309 13.4772C16.4309 13.4772 17.4497 14.4828 17.7005 14.9496C17.7077 14.9592 17.7113 14.9688 17.7137 14.9736C17.8157 15.1452 17.8397 15.2784 17.7893 15.378C17.7053 15.5436 17.4173 15.6252 17.3189 15.6324H15.5189C15.3941 15.6324 15.1325 15.6 14.8157 15.3816C14.5721 15.2112 14.3321 14.9316 14.0981 14.6592C13.7489 14.2536 13.4465 13.9032 13.1417 13.9032C13.103 13.9031 13.0645 13.9092 13.0277 13.9212C12.7973 13.9956 12.5021 14.3244 12.5021 15.2004C12.5021 15.474 12.2861 15.6312 12.1337 15.6312H11.3093C11.0285 15.6312 9.56567 15.5328 8.26967 14.166C6.68327 12.492 5.25527 9.1344 5.24327 9.1032C5.15327 8.886 5.33927 8.7696 5.54207 8.7696H7.36007C7.60247 8.7696 7.68167 8.9172 7.73687 9.048C7.80167 9.2004 8.03927 9.8064 8.42927 10.488C9.06167 11.5992 9.44927 12.0504 9.76007 12.0504C9.81835 12.0497 9.87559 12.0349 9.92687 12.0072C10.3325 11.7816 10.2569 10.3356 10.2389 10.0356C10.2389 9.9792 10.2377 9.3888 10.0301 9.1056C9.88127 8.9004 9.62807 8.8224 9.47447 8.7936C9.53664 8.70781 9.61855 8.63825 9.71327 8.5908C9.99167 8.4516 10.4933 8.4312 10.9913 8.4312H11.2685C11.8085 8.4384 11.9477 8.4732 12.1433 8.5224C12.5393 8.6172 12.5477 8.8728 12.5129 9.7476C12.5021 9.996 12.4913 10.2768 12.4913 10.608C12.4913 10.68 12.4877 10.7568 12.4877 10.8384C12.4757 11.2836 12.4613 11.7888 12.7757 11.9964C12.8167 12.0221 12.8641 12.0358 12.9125 12.036C13.0217 12.036 13.3505 12.036 14.2409 10.5084C14.5155 10.0167 14.7541 9.50577 14.9549 8.9796C14.9729 8.9484 15.0257 8.8524 15.0881 8.8152C15.1341 8.79172 15.1852 8.77978 15.2369 8.7804H17.3741C17.6069 8.7804 17.7665 8.8152 17.7965 8.9052C17.8493 9.048 17.7869 9.4836 16.8113 10.8048L16.3757 11.3796C15.4913 12.5388 15.4913 12.5976 16.4309 13.4772Z" fill="currentColor"></path>
  </symbol>
  <symbol fill="none" xmlns="http://www.w3.org/2000/svg" viewBox="0 0 20 14" id="youtube">
    <path d="M8 10L13.19 7L8 4V10ZM19.56 2.17C19.69 2.64 19.78 3.27 19.84 4.07C19.91 4.87 19.94 5.56 19.94 6.16L20 7C20 9.19 19.84 10.8 19.56 11.83C19.31 12.73 18.73 13.31 17.83 13.56C17.36 13.69 16.5 13.78 15.18 13.84C13.88 13.91 12.69 13.94 11.59 13.94L10 14C5.81 14 3.2 13.84 2.17 13.56C1.27 13.31 0.69 12.73 0.44 11.83C0.31 11.36 0.22 10.73 0.16 9.93C0.0900001 9.13 0.0599999 8.44 0.0599999 7.84L0 7C0 4.81 0.16 3.2 0.44 2.17C0.69 1.27 1.27 0.69 2.17 0.44C2.64 0.31 3.5 0.22 4.82 0.16C6.12 0.0899998 7.31 0.0599999 8.41 0.0599999L10 0C14.19 0 16.8 0.16 17.83 0.44C18.73 0.69 19.31 1.27 19.56 2.17Z" fill="currentColor"></path>
  </symbol>
</svg>
